<?xml version="1.0" standalone="no"?>
<!DOCTYPE svg PUBLIC "-//W3C//DTD SVG 20010904//EN"
 "http://www.w3.org/TR/2001/REC-SVG-20010904/DTD/svg10.dtd">
<svg version="1.0" xmlns="http://www.w3.org/2000/svg"
 width="93.000000pt" height="93.000000pt" viewBox="0 0 93.000000 93.000000"
 preserveAspectRatio="xMidYMid meet">

<g transform="translate(0.000000,93.000000) scale(0.100000,-0.100000)"
fill="#2E7E48" stroke="none">
<path d="M375 918 c-236 -45 -404 -284 -366 -522 41 -252 277 -427 525 -387
253 41 429 280 387 527 -33 195 -183 348 -375 383 -69 13 -101 12 -171 -1z
m275 -49 c102 -48 170 -116 218 -216 36 -75 37 -82 37 -188 0 -106 -1 -113
-37 -188 -48 -100 -116 -168 -218 -216 -72 -35 -79 -36 -185 -36 -106 0 -113
1 -185 36 -102 48 -170 116 -218 216 -36 75 -37 82 -37 188 0 106 1 113 37
188 57 119 151 200 283 244 25 8 76 12 135 10 86 -2 103 -6 170 -38z"/>
<path d="M435 771 c-109 -28 -178 -116 -178 -226 0 -64 23 -124 62 -159 18
-16 21 -30 21 -96 0 -62 3 -79 16 -84 9 -3 57 -6 108 -6 98 0 116 7 116 47 0
20 5 23 43 23 60 0 70 10 75 75 4 52 7 58 33 67 16 5 29 11 29 13 0 2 -11 27
-25 57 -14 29 -25 64 -25 78 0 76 -50 154 -119 190 -44 22 -115 32 -156 21z
m68 -51 c9 -13 20 -18 31 -14 24 9 48 -15 42 -42 -5 -17 -1 -26 14 -34 25 -14
26 -46 1 -60 -13 -7 -17 -16 -14 -31 7 -26 -19 -49 -47 -42 -12 3 -22 -1 -26
-11 -8 -21 -53 -21 -61 0 -4 10 -13 14 -26 10 -28 -7 -47 11 -47 44 0 16 -7
30 -15 34 -8 3 -15 15 -15 26 0 11 7 23 15 26 8 4 15 18 15 34 0 33 21 53 44
44 11 -4 22 1 32 15 19 26 39 27 57 1z"/>
<path d="M436 634 c-20 -19 -20 -34 0 -62 21 -30 59 -29 80 3 15 23 15 27 0
50 -19 29 -56 33 -80 9z"/>
</g>
</svg>
