<?xml version="1.0" standalone="no"?>
<!DOCTYPE svg PUBLIC "-//W3C//DTD SVG 20010904//EN"
 "http://www.w3.org/TR/2001/REC-SVG-20010904/DTD/svg10.dtd">
<svg version="1.0" xmlns="http://www.w3.org/2000/svg"
 width="93.000000pt" height="93.000000pt" viewBox="0 0 93.000000 93.000000"
 preserveAspectRatio="xMidYMid meet">

<g transform="translate(0.000000,93.000000) scale(0.100000,-0.100000)"
fill="#2E7E48" stroke="none">
<path d="M375 918 c-236 -45 -404 -284 -366 -522 41 -252 277 -427 525 -387
253 41 429 280 387 527 -33 195 -183 348 -375 383 -69 13 -101 12 -171 -1z
m275 -49 c102 -48 170 -116 218 -216 36 -75 37 -82 37 -188 0 -106 -1 -113
-37 -188 -48 -100 -116 -168 -218 -216 -72 -35 -79 -36 -185 -36 -106 0 -113
1 -185 36 -102 48 -170 116 -218 216 -36 75 -37 82 -37 188 0 106 1 113 37
188 57 119 151 200 283 244 25 8 76 12 135 10 86 -2 103 -6 170 -38z"/>
<path d="M527 793 c-3 -2 -25 -9 -48 -14 -58 -13 -69 -25 -69 -68 0 -20 -5
-42 -12 -49 -6 -6 -8 -15 -4 -19 10 -10 46 34 46 57 0 21 41 35 52 17 21 -34
27 -41 33 -35 4 3 -1 18 -10 32 -10 14 -13 26 -9 27 5 1 18 2 29 3 24 1 33 41
12 49 -8 3 -17 3 -20 0z"/>
<path d="M632 738 c-24 -30 -18 -74 13 -94 21 -14 31 -15 51 -6 63 29 48 112
-20 112 -18 0 -38 -6 -44 -12z"/>
<path d="M457 704 c-3 -3 2 -26 11 -52 12 -33 25 -48 45 -56 22 -8 27 -15 22
-31 -3 -11 -11 -45 -16 -75 -6 -30 -20 -83 -30 -118 -11 -37 -19 -93 -19 -138
0 -66 2 -75 18 -72 13 3 18 17 23 68 4 36 15 84 25 105 l18 40 6 -65 c9 -84
36 -150 61 -150 23 0 23 -1 3 67 -22 77 -2 246 37 309 24 39 24 49 -1 74 -16
16 -33 20 -80 20 -59 0 -60 0 -80 40 -20 38 -30 47 -43 34z"/>
<path d="M224 645 c-20 -31 -10 -63 23 -76 55 -21 98 46 55 84 -27 24 -59 21
-78 -8z"/>
<path d="M420 601 c-11 -29 -40 -41 -94 -41 -12 0 -30 -6 -40 -13 -17 -13 -18
-15 -1 -47 11 -21 15 -45 12 -67 -3 -19 1 -52 9 -75 17 -49 17 -111 0 -159
-21 -61 1 -83 30 -28 8 17 21 61 28 98 l13 66 16 -54 c10 -30 17 -72 17 -94 0
-31 3 -38 18 -35 14 3 17 14 15 71 0 38 -10 96 -22 130 -49 150 -52 160 -39
169 7 4 19 8 25 8 13 0 35 36 47 78 11 34 -19 28 -34 -7z"/>
</g>
</svg>
