<?xml version="1.0" standalone="no"?>
<!DOCTYPE svg PUBLIC "-//W3C//DTD SVG 20010904//EN"
 "http://www.w3.org/TR/2001/REC-SVG-20010904/DTD/svg10.dtd">
<svg version="1.0" xmlns="http://www.w3.org/2000/svg"
 width="93.000000pt" height="93.000000pt" viewBox="0 0 93.000000 93.000000"
 preserveAspectRatio="xMidYMid meet">

<g transform="translate(0.000000,93.000000) scale(0.100000,-0.100000)"
fill="#2E7E48" stroke="none">
<path d="M375 918 c-236 -45 -404 -284 -366 -522 41 -252 277 -427 525 -387
253 41 429 280 387 527 -33 195 -183 348 -375 383 -69 13 -101 12 -171 -1z
m275 -49 c102 -48 170 -116 218 -216 36 -75 37 -82 37 -188 0 -106 -1 -113
-37 -188 -48 -100 -116 -168 -218 -216 -72 -35 -79 -36 -185 -36 -106 0 -113
1 -185 36 -102 48 -170 116 -218 216 -36 75 -37 82 -37 188 0 106 1 113 37
188 57 119 151 200 283 244 25 8 76 12 135 10 86 -2 103 -6 170 -38z"/>
<path d="M401 811 c-11 -7 -11 -12 2 -31 l15 -22 7 22 c8 26 -5 43 -24 31z"/>
<path d="M426 710 c2 -25 7 -59 10 -75 5 -27 1 -34 -36 -58 -33 -21 -46 -25
-61 -16 -11 5 -17 14 -14 19 3 5 1 19 -5 30 -16 30 -64 24 -68 -8 -5 -34 16
-54 48 -47 35 8 56 -15 41 -44 -6 -11 -11 -31 -11 -44 0 -21 -6 -25 -46 -31
-76 -10 -111 -7 -118 9 -8 22 -53 19 -66 -5 -25 -46 42 -84 72 -41 10 13 32
20 83 25 l71 7 17 -35 16 -35 -45 -33 c-25 -18 -55 -33 -66 -33 -12 0 -23 -6
-25 -12 -7 -19 26 -28 40 -11 18 22 93 78 105 78 5 0 15 -7 22 -15 10 -12 7
-29 -15 -93 -15 -42 -34 -85 -43 -95 -11 -13 -12 -21 -5 -28 14 -14 36 -1 29
17 -9 23 57 185 72 179 8 -3 26 -5 42 -5 26 0 29 -4 36 -45 4 -29 2 -50 -5
-59 -16 -20 -3 -46 24 -46 32 0 41 31 16 51 -11 9 -22 34 -26 60 -6 41 -5 45
22 56 15 7 35 18 44 24 21 16 89 -27 89 -57 0 -41 54 -61 80 -29 29 35 -17 89
-57 67 -12 -7 -27 -3 -55 15 -42 28 -44 32 -25 56 11 15 21 15 87 5 41 -6 78
-15 81 -20 9 -14 44 -5 44 11 0 11 -17 15 -70 16 -114 3 -132 10 -137 53 -3
20 -7 43 -9 51 -6 21 82 70 122 68 31 -2 34 0 34 28 0 25 -4 30 -25 30 -17 0
-29 -8 -37 -26 -7 -14 -34 -37 -60 -51 l-48 -26 -29 24 c-28 25 -28 27 -16 67
6 23 19 50 28 60 8 9 12 20 9 23 -9 9 -39 -4 -33 -15 3 -5 -1 -29 -10 -55 -15
-44 -18 -46 -54 -46 l-38 0 -16 78 c-8 42 -13 57 -10 32z"/>
</g>
</svg>
