<?xml version="1.0" standalone="no"?>
<!DOCTYPE svg PUBLIC "-//W3C//DTD SVG 20010904//EN"
 "http://www.w3.org/TR/2001/REC-SVG-20010904/DTD/svg10.dtd">
<svg version="1.0" xmlns="http://www.w3.org/2000/svg"
 width="93.000000pt" height="93.000000pt" viewBox="0 0 93.000000 93.000000"
 preserveAspectRatio="xMidYMid meet">

<g transform="translate(0.000000,93.000000) scale(0.100000,-0.100000)"
fill="#2E7E48" stroke="none">
<path d="M375 918 c-236 -45 -404 -284 -366 -522 41 -252 277 -427 525 -387
253 41 429 280 387 527 -33 195 -183 348 -375 383 -69 13 -101 12 -171 -1z
m275 -49 c102 -48 170 -116 218 -216 36 -75 37 -82 37 -188 0 -106 -1 -113
-37 -188 -48 -100 -116 -168 -218 -216 -72 -35 -79 -36 -185 -36 -106 0 -113
1 -185 36 -102 48 -170 116 -218 216 -36 75 -37 82 -37 188 0 106 1 113 37
188 57 119 151 200 283 244 25 8 76 12 135 10 86 -2 103 -6 170 -38z"/>
<path d="M271 706 c-45 -25 -50 -50 -51 -224 0 -243 -1 -242 240 -242 240 0
240 0 240 240 0 176 -7 206 -55 228 -38 17 -342 16 -374 -2z m304 -70 c24 -15
47 -31 50 -36 3 -6 -10 -30 -31 -55 l-36 -45 -98 0 -98 0 -36 44 c-20 24 -36
47 -36 50 0 9 63 49 99 63 51 19 133 10 186 -21z"/>
<path d="M504 578 c-4 -7 -14 -23 -22 -35 -13 -21 -13 -23 6 -23 14 0 21 9 26
32 7 34 2 47 -10 26z"/>
</g>
</svg>
