<?xml version="1.0" standalone="no"?>
<!DOCTYPE svg PUBLIC "-//W3C//DTD SVG 20010904//EN"
 "http://www.w3.org/TR/2001/REC-SVG-20010904/DTD/svg10.dtd">
<svg version="1.0" xmlns="http://www.w3.org/2000/svg"
 width="93.000000pt" height="93.000000pt" viewBox="0 0 93.000000 93.000000"
 preserveAspectRatio="xMidYMid meet">

<g transform="translate(0.000000,93.000000) scale(0.100000,-0.100000)"
fill="#2E7E48" stroke="none">
<path d="M375 918 c-236 -45 -404 -284 -366 -522 41 -252 277 -427 525 -387
253 41 429 280 387 527 -33 195 -183 348 -375 383 -69 13 -101 12 -171 -1z
m275 -49 c102 -48 170 -116 218 -216 36 -75 37 -82 37 -188 0 -106 -1 -113
-37 -188 -48 -100 -116 -168 -218 -216 -72 -35 -79 -36 -185 -36 -106 0 -113
1 -185 36 -102 48 -170 116 -218 216 -36 75 -37 82 -37 188 0 106 1 113 37
188 57 119 151 200 283 244 25 8 76 12 135 10 86 -2 103 -6 170 -38z"/>
<path d="M283 639 c-42 -10 -43 -11 -43 -50 l0 -40 31 16 c39 21 108 16 123
-7 17 -27 -4 -52 -48 -56 -33 -3 -36 -6 -36 -33 0 -27 3 -29 38 -29 45 0 62
-14 62 -50 0 -55 -70 -77 -145 -46 l-35 15 0 -38 c0 -37 2 -39 44 -50 67 -16
107 -14 156 12 36 17 48 30 59 64 18 51 6 85 -38 111 l-29 16 28 17 c52 32 47
113 -8 138 -37 17 -110 22 -159 10z"/>
<path d="M620 633 c-56 -29 -75 -73 -75 -178 0 -72 4 -97 21 -125 27 -48 82
-74 139 -66 85 13 121 81 113 216 -8 117 -35 155 -120 166 -30 4 -53 0 -78
-13z m100 -72 c15 -29 13 -193 -3 -215 -18 -25 -58 -17 -75 14 -17 33 -12 181
7 203 18 23 58 21 71 -2z"/>
<path d="M100 445 c0 -21 -5 -25 -30 -25 -20 0 -30 -5 -30 -15 0 -10 10 -15
30 -15 25 0 30 -4 30 -25 0 -14 5 -25 10 -25 6 0 10 11 10 25 0 21 5 25 30 25
20 0 30 5 30 15 0 10 -10 15 -30 15 -25 0 -30 4 -30 25 0 14 -4 25 -10 25 -5
0 -10 -11 -10 -25z"/>
</g>
</svg>
