<?xml version="1.0" standalone="no"?>
<!DOCTYPE svg PUBLIC "-//W3C//DTD SVG 20010904//EN"
 "http://www.w3.org/TR/2001/REC-SVG-20010904/DTD/svg10.dtd">
<svg version="1.0" xmlns="http://www.w3.org/2000/svg"
 width="93.000000pt" height="93.000000pt" viewBox="0 0 93.000000 93.000000"
 preserveAspectRatio="xMidYMid meet">

<g transform="translate(0.000000,93.000000) scale(0.100000,-0.100000)"
fill="#2E7E48" stroke="none">
<path d="M375 918 c-236 -45 -404 -284 -366 -522 41 -252 277 -427 525 -387
253 41 429 280 387 527 -33 195 -183 348 -375 383 -69 13 -101 12 -171 -1z
m275 -49 c102 -48 170 -116 218 -216 36 -75 37 -82 37 -188 0 -106 -1 -113
-37 -188 -48 -100 -116 -168 -218 -216 -72 -35 -79 -36 -185 -36 -106 0 -113
1 -185 36 -102 48 -170 116 -218 216 -36 75 -37 82 -37 188 0 106 1 113 37
188 57 119 151 200 283 244 25 8 76 12 135 10 86 -2 103 -6 170 -38z"/>
<path d="M695 639 c-101 -49 -158 -67 -299 -93 -90 -17 -129 -46 -148 -107
-15 -53 -3 -100 35 -137 39 -38 89 -49 140 -33 50 17 71 45 77 103 l5 51 61
17 c74 20 121 48 169 101 42 46 81 127 68 139 -4 4 -53 -14 -108 -41z"/>
<path d="M298 590 c-114 -76 -152 -192 -97 -302 51 -100 161 -121 309 -57 53
23 61 40 39 81 -11 20 -11 19 -29 -9 -11 -18 -38 -38 -71 -52 -67 -29 -124
-25 -175 14 -114 87 -66 273 74 292 48 6 51 11 19 41 l-23 22 -46 -30z"/>
</g>
</svg>
